<?xml version="1.0" encoding="UTF-8" standalone="no"?>
<!DOCTYPE svg PUBLIC "-//W3C//DTD SVG 1.1//EN"
 "http://www.w3.org/Graphics/SVG/1.1/DTD/svg11.dtd">
<!-- Generated by graphviz version 2.47.3 (20210619.1520)
 -->
<!-- Title: dependencies Pages: 1 -->
<svg width="8484pt" height="247pt"
 viewBox="0.00 0.00 8484.00 246.80" xmlns="http://www.w3.org/2000/svg" xmlns:xlink="http://www.w3.org/1999/xlink">
<g id="graph0" class="graph" transform="scale(1 1) rotate(0) translate(4 242.8)">
<title>dependencies</title>
<polygon fill="white" stroke="transparent" points="-4,4 -4,-242.8 8480,-242.8 8480,4 -4,4"/>
<text text-anchor="middle" x="4238" y="-8.2" font-family="sans-serif" font-size="14.00">dependencies</text>
<g id="clust1" class="cluster">
<title>cluster_AppModule</title>
<polygon fill="none" stroke="black" stroke-dasharray="1,5" points="8,-32.8 8,-230.8 8468,-230.8 8468,-32.8 8,-32.8"/>
</g>
<g id="clust2" class="cluster">
<title>cluster_AppModule_declarations</title>
<polygon fill="none" stroke="black" points="2396,-40.8 2396,-92.8 8460,-92.8 8460,-40.8 2396,-40.8"/>
</g>
<g id="clust44" class="cluster">
<title>cluster_AppModule_providers</title>
<polygon fill="none" stroke="black" points="1966,-40.8 1966,-92.8 2388,-92.8 2388,-40.8 1966,-40.8"/>
</g>
<g id="clust41" class="cluster">
<title>cluster_AppModule_imports</title>
<polygon fill="none" stroke="black" points="16,-40.8 16,-92.8 1958,-92.8 1958,-40.8 16,-40.8"/>
</g>
<g id="clust43" class="cluster">
<title>cluster_AppModule_bootstrap</title>
<polygon fill="none" stroke="black" points="4350,-170.8 4350,-222.8 4474,-222.8 4474,-170.8 4350,-170.8"/>
</g>
<!-- AppComponent -->
<g id="node1" class="node">
<title>AppComponent</title>
<polygon fill="#ffffb3" stroke="black" points="8451.94,-84.8 8346.06,-84.8 8346.06,-48.8 8451.94,-48.8 8451.94,-84.8"/>
<text text-anchor="middle" x="8399" y="-62.6" font-family="Times,serif" font-size="14.00">AppComponent</text>
</g>
<!-- AppModule -->
<g id="node39" class="node">
<title>AppModule</title>
<polygon fill="#8dd3c7" stroke="black" points="4453.66,-149.8 4450.66,-153.8 4429.66,-153.8 4426.66,-149.8 4370.34,-149.8 4370.34,-113.8 4453.66,-113.8 4453.66,-149.8"/>
<text text-anchor="middle" x="4412" y="-127.6" font-family="Times,serif" font-size="14.00">AppModule</text>
</g>
<!-- AppComponent&#45;&gt;AppModule -->
<g id="edge1" class="edge">
<title>AppComponent&#45;&gt;AppModule</title>
<path fill="none" stroke="black" d="M8399,-85C8399,-109.16 8399,-148.8 8399,-148.8 8399,-148.8 4463.75,-148.8 4463.75,-148.8"/>
<polygon fill="black" stroke="black" points="4463.75,-145.3 4453.75,-148.8 4463.75,-152.3 4463.75,-145.3"/>
</g>
<!-- DashboardComponent -->
<g id="node2" class="node">
<title>DashboardComponent</title>
<polygon fill="#ffffb3" stroke="black" points="8327.97,-84.8 8186.03,-84.8 8186.03,-48.8 8327.97,-48.8 8327.97,-84.8"/>
<text text-anchor="middle" x="8257" y="-62.6" font-family="Times,serif" font-size="14.00">DashboardComponent</text>
</g>
<!-- DashboardComponent&#45;&gt;AppModule -->
<g id="edge2" class="edge">
<title>DashboardComponent&#45;&gt;AppModule</title>
<path fill="none" stroke="black" d="M8257,-85.18C8257,-109.08 8257,-147.8 8257,-147.8 8257,-147.8 4463.87,-147.8 4463.87,-147.8"/>
<polygon fill="black" stroke="black" points="4463.87,-144.3 4453.87,-147.8 4463.87,-151.3 4463.87,-144.3"/>
</g>
<!-- NavbarComponent -->
<g id="node3" class="node">
<title>NavbarComponent</title>
<polygon fill="#ffffb3" stroke="black" points="8168.03,-84.8 8045.97,-84.8 8045.97,-48.8 8168.03,-48.8 8168.03,-84.8"/>
<text text-anchor="middle" x="8107" y="-62.6" font-family="Times,serif" font-size="14.00">NavbarComponent</text>
</g>
<!-- NavbarComponent&#45;&gt;AppModule -->
<g id="edge3" class="edge">
<title>NavbarComponent&#45;&gt;AppModule</title>
<path fill="none" stroke="black" d="M8107,-85.12C8107,-108.46 8107,-145.8 8107,-145.8 8107,-145.8 4463.81,-145.8 4463.81,-145.8"/>
<polygon fill="black" stroke="black" points="4463.81,-142.3 4453.81,-145.8 4463.81,-149.3 4463.81,-142.3"/>
</g>
<!-- SearchInputComponent -->
<g id="node4" class="node">
<title>SearchInputComponent</title>
<polygon fill="#ffffb3" stroke="black" points="8027.47,-84.8 7878.53,-84.8 7878.53,-48.8 8027.47,-48.8 8027.47,-84.8"/>
<text text-anchor="middle" x="7953" y="-62.6" font-family="Times,serif" font-size="14.00">SearchInputComponent</text>
</g>
<!-- SearchInputComponent&#45;&gt;AppModule -->
<g id="edge4" class="edge">
<title>SearchInputComponent&#45;&gt;AppModule</title>
<path fill="none" stroke="black" d="M7953,-84.89C7953,-107.93 7953,-144.8 7953,-144.8 7953,-144.8 4463.92,-144.8 4463.92,-144.8"/>
<polygon fill="black" stroke="black" points="4463.92,-141.3 4453.92,-144.8 4463.92,-148.3 4463.92,-141.3"/>
</g>
<!-- MenuComponent -->
<g id="node5" class="node">
<title>MenuComponent</title>
<polygon fill="#ffffb3" stroke="black" points="7860.99,-84.8 7747.01,-84.8 7747.01,-48.8 7860.99,-48.8 7860.99,-84.8"/>
<text text-anchor="middle" x="7804" y="-62.6" font-family="Times,serif" font-size="14.00">MenuComponent</text>
</g>
<!-- MenuComponent&#45;&gt;AppModule -->
<g id="edge5" class="edge">
<title>MenuComponent&#45;&gt;AppModule</title>
<path fill="none" stroke="black" d="M7804,-85.05C7804,-107.82 7804,-143.8 7804,-143.8 7804,-143.8 4463.66,-143.8 4463.66,-143.8"/>
<polygon fill="black" stroke="black" points="4463.66,-140.3 4453.66,-143.8 4463.66,-147.3 4463.66,-140.3"/>
</g>
<!-- LoginComponent -->
<g id="node6" class="node">
<title>LoginComponent</title>
<polygon fill="#ffffb3" stroke="black" points="7729.28,-84.8 7614.72,-84.8 7614.72,-48.8 7729.28,-48.8 7729.28,-84.8"/>
<text text-anchor="middle" x="7672" y="-62.6" font-family="Times,serif" font-size="14.00">LoginComponent</text>
</g>
<!-- LoginComponent&#45;&gt;AppModule -->
<g id="edge6" class="edge">
<title>LoginComponent&#45;&gt;AppModule</title>
<path fill="none" stroke="black" d="M7672,-84.96C7672,-107.15 7672,-141.8 7672,-141.8 7672,-141.8 4463.81,-141.8 4463.81,-141.8"/>
<polygon fill="black" stroke="black" points="4463.81,-138.3 4453.81,-141.8 4463.81,-145.3 4463.81,-138.3"/>
</g>
<!-- SettingsComponent -->
<g id="node7" class="node">
<title>SettingsComponent</title>
<polygon fill="#ffffb3" stroke="black" points="7596.45,-84.8 7469.55,-84.8 7469.55,-48.8 7596.45,-48.8 7596.45,-84.8"/>
<text text-anchor="middle" x="7533" y="-62.6" font-family="Times,serif" font-size="14.00">SettingsComponent</text>
</g>
<!-- SettingsComponent&#45;&gt;AppModule -->
<g id="edge7" class="edge">
<title>SettingsComponent&#45;&gt;AppModule</title>
<path fill="none" stroke="black" d="M7533,-85.09C7533,-107.01 7533,-140.8 7533,-140.8 7533,-140.8 4463.76,-140.8 4463.76,-140.8"/>
<polygon fill="black" stroke="black" points="4463.76,-137.3 4453.76,-140.8 4463.76,-144.3 4463.76,-137.3"/>
</g>
<!-- AdminComponent -->
<g id="node8" class="node">
<title>AdminComponent</title>
<polygon fill="#ffffb3" stroke="black" points="7452.22,-84.8 7331.78,-84.8 7331.78,-48.8 7452.22,-48.8 7452.22,-84.8"/>
<text text-anchor="middle" x="7392" y="-62.6" font-family="Times,serif" font-size="14.00">AdminComponent</text>
</g>
<!-- AdminComponent&#45;&gt;AppModule -->
<g id="edge8" class="edge">
<title>AdminComponent&#45;&gt;AppModule</title>
<path fill="none" stroke="black" d="M7392,-84.97C7392,-106.3 7392,-138.8 7392,-138.8 7392,-138.8 4463.84,-138.8 4463.84,-138.8"/>
<polygon fill="black" stroke="black" points="4463.84,-135.3 4453.84,-138.8 4463.84,-142.3 4463.84,-135.3"/>
</g>
<!-- ReviewsComponent -->
<g id="node9" class="node">
<title>ReviewsComponent</title>
<polygon fill="#ffffb3" stroke="black" points="7313.54,-84.8 7184.46,-84.8 7184.46,-48.8 7313.54,-48.8 7313.54,-84.8"/>
<text text-anchor="middle" x="7249" y="-62.6" font-family="Times,serif" font-size="14.00">ReviewsComponent</text>
</g>
<!-- ReviewsComponent&#45;&gt;AppModule -->
<g id="edge9" class="edge">
<title>ReviewsComponent&#45;&gt;AppModule</title>
<path fill="none" stroke="black" d="M7249,-85.08C7249,-106.12 7249,-137.8 7249,-137.8 7249,-137.8 4463.75,-137.8 4463.75,-137.8"/>
<polygon fill="black" stroke="black" points="4463.75,-134.3 4453.75,-137.8 4463.75,-141.3 4463.75,-134.3"/>
</g>
<!-- CourseDetailComponent -->
<g id="node10" class="node">
<title>CourseDetailComponent</title>
<polygon fill="#ffffb3" stroke="black" points="7166.7,-84.8 7011.3,-84.8 7011.3,-48.8 7166.7,-48.8 7166.7,-84.8"/>
<text text-anchor="middle" x="7089" y="-62.6" font-family="Times,serif" font-size="14.00">CourseDetailComponent</text>
</g>
<!-- CourseDetailComponent&#45;&gt;AppModule -->
<g id="edge10" class="edge">
<title>CourseDetailComponent&#45;&gt;AppModule</title>
<path fill="none" stroke="black" d="M7089,-84.83C7089,-105.57 7089,-136.8 7089,-136.8 7089,-136.8 4463.78,-136.8 4463.78,-136.8"/>
<polygon fill="black" stroke="black" points="4463.78,-133.3 4453.78,-136.8 4463.78,-140.3 4463.78,-133.3"/>
</g>
<!-- ReviewDetailComponent -->
<g id="node11" class="node">
<title>ReviewDetailComponent</title>
<polygon fill="#ffffb3" stroke="black" points="6993.3,-84.8 6834.7,-84.8 6834.7,-48.8 6993.3,-48.8 6993.3,-84.8"/>
<text text-anchor="middle" x="6914" y="-62.6" font-family="Times,serif" font-size="14.00">ReviewDetailComponent</text>
</g>
<!-- ReviewDetailComponent&#45;&gt;AppModule -->
<g id="edge11" class="edge">
<title>ReviewDetailComponent&#45;&gt;AppModule</title>
<path fill="none" stroke="black" d="M6914,-85.02C6914,-105.17 6914,-134.8 6914,-134.8 6914,-134.8 4463.86,-134.8 4463.86,-134.8"/>
<polygon fill="black" stroke="black" points="4463.86,-131.3 4453.86,-134.8 4463.86,-138.3 4463.86,-131.3"/>
</g>
<!-- DialogOnDelete -->
<g id="node12" class="node">
<title>DialogOnDelete</title>
<polygon fill="#ffffb3" stroke="black" points="6816.74,-84.8 6709.26,-84.8 6709.26,-48.8 6816.74,-48.8 6816.74,-84.8"/>
<text text-anchor="middle" x="6763" y="-62.6" font-family="Times,serif" font-size="14.00">DialogOnDelete</text>
</g>
<!-- DialogOnDelete&#45;&gt;AppModule -->
<g id="edge12" class="edge">
<title>DialogOnDelete&#45;&gt;AppModule</title>
<path fill="none" stroke="black" d="M6763,-85.11C6763,-104.95 6763,-133.8 6763,-133.8 6763,-133.8 4463.8,-133.8 4463.8,-133.8"/>
<polygon fill="black" stroke="black" points="4463.8,-130.3 4453.8,-133.8 4463.8,-137.3 4463.8,-130.3"/>
</g>
<!-- RegisterComponent -->
<g id="node13" class="node">
<title>RegisterComponent</title>
<polygon fill="#ffffb3" stroke="black" points="6690.98,-84.8 6563.02,-84.8 6563.02,-48.8 6690.98,-48.8 6690.98,-84.8"/>
<text text-anchor="middle" x="6627" y="-62.6" font-family="Times,serif" font-size="14.00">RegisterComponent</text>
</g>
<!-- RegisterComponent&#45;&gt;AppModule -->
<g id="edge13" class="edge">
<title>RegisterComponent&#45;&gt;AppModule</title>
<path fill="none" stroke="black" d="M6627,-84.91C6627,-104.14 6627,-131.8 6627,-131.8 6627,-131.8 4463.78,-131.8 4463.78,-131.8"/>
<polygon fill="black" stroke="black" points="4463.78,-128.3 4453.78,-131.8 4463.78,-135.3 4463.78,-128.3"/>
</g>
<!-- ForgotPasswordComponent -->
<g id="node14" class="node">
<title>ForgotPasswordComponent</title>
<polygon fill="#ffffb3" stroke="black" points="6545.32,-84.8 6372.68,-84.8 6372.68,-48.8 6545.32,-48.8 6545.32,-84.8"/>
<text text-anchor="middle" x="6459" y="-62.6" font-family="Times,serif" font-size="14.00">ForgotPasswordComponent</text>
</g>
<!-- ForgotPasswordComponent&#45;&gt;AppModule -->
<g id="edge14" class="edge">
<title>ForgotPasswordComponent&#45;&gt;AppModule</title>
<path fill="none" stroke="black" d="M6459,-84.97C6459,-103.89 6459,-130.8 6459,-130.8 6459,-130.8 4463.82,-130.8 4463.82,-130.8"/>
<polygon fill="black" stroke="black" points="4463.82,-127.3 4453.82,-130.8 4463.82,-134.3 4463.82,-127.3"/>
</g>
<!-- VerifyEmailComponent -->
<g id="node15" class="node">
<title>VerifyEmailComponent</title>
<polygon fill="#ffffb3" stroke="black" points="6354.8,-84.8 6203.2,-84.8 6203.2,-48.8 6354.8,-48.8 6354.8,-84.8"/>
<text text-anchor="middle" x="6279" y="-62.6" font-family="Times,serif" font-size="14.00">VerifyEmailComponent</text>
</g>
<!-- VerifyEmailComponent&#45;&gt;AppModule -->
<g id="edge15" class="edge">
<title>VerifyEmailComponent&#45;&gt;AppModule</title>
<path fill="none" stroke="black" d="M6279,-85.02C6279,-103.63 6279,-129.8 6279,-129.8 6279,-129.8 4464.06,-129.8 4464.06,-129.8"/>
<polygon fill="black" stroke="black" points="4464.06,-126.3 4454.06,-129.8 4464.06,-133.3 4464.06,-126.3"/>
</g>
<!-- CourseListComponent -->
<g id="node16" class="node">
<title>CourseListComponent</title>
<polygon fill="#ffffb3" stroke="black" points="6185.27,-84.8 6042.73,-84.8 6042.73,-48.8 6185.27,-48.8 6185.27,-84.8"/>
<text text-anchor="middle" x="6114" y="-62.6" font-family="Times,serif" font-size="14.00">CourseListComponent</text>
</g>
<!-- CourseListComponent&#45;&gt;AppModule -->
<g id="edge16" class="edge">
<title>CourseListComponent&#45;&gt;AppModule</title>
<path fill="none" stroke="black" d="M6114,-85.1C6114,-103.07 6114,-127.8 6114,-127.8 6114,-127.8 4464.07,-127.8 4464.07,-127.8"/>
<polygon fill="black" stroke="black" points="4464.07,-124.3 4454.07,-127.8 4464.07,-131.3 4464.07,-124.3"/>
</g>
<!-- CourseCardComponent -->
<g id="node17" class="node">
<title>CourseCardComponent</title>
<polygon fill="#ffffb3" stroke="black" points="6025.2,-84.8 5876.8,-84.8 5876.8,-48.8 6025.2,-48.8 6025.2,-84.8"/>
<text text-anchor="middle" x="5951" y="-62.6" font-family="Times,serif" font-size="14.00">CourseCardComponent</text>
</g>
<!-- CourseCardComponent&#45;&gt;AppModule -->
<g id="edge17" class="edge">
<title>CourseCardComponent&#45;&gt;AppModule</title>
<path fill="none" stroke="black" d="M5951,-84.8C5951,-102.48 5951,-126.8 5951,-126.8 5951,-126.8 4463.96,-126.8 4463.96,-126.8"/>
<polygon fill="black" stroke="black" points="4463.96,-123.3 4453.96,-126.8 4463.96,-130.3 4463.96,-123.3"/>
</g>
<!-- CourseGridComponent -->
<g id="node18" class="node">
<title>CourseGridComponent</title>
<polygon fill="#ffffb3" stroke="black" points="5859.15,-84.8 5712.85,-84.8 5712.85,-48.8 5859.15,-48.8 5859.15,-84.8"/>
<text text-anchor="middle" x="5786" y="-62.6" font-family="Times,serif" font-size="14.00">CourseGridComponent</text>
</g>
<!-- CourseGridComponent&#45;&gt;AppModule -->
<g id="edge18" class="edge">
<title>CourseGridComponent&#45;&gt;AppModule</title>
<path fill="none" stroke="black" d="M5786,-84.82C5786,-102.17 5786,-125.8 5786,-125.8 5786,-125.8 4463.87,-125.8 4463.87,-125.8"/>
<polygon fill="black" stroke="black" points="4463.87,-122.3 4453.87,-125.8 4463.87,-129.3 4463.87,-122.3"/>
</g>
<!-- CourseGridCardComponent -->
<g id="node19" class="node">
<title>CourseGridCardComponent</title>
<polygon fill="#ffffb3" stroke="black" points="5694.86,-84.8 5521.14,-84.8 5521.14,-48.8 5694.86,-48.8 5694.86,-84.8"/>
<text text-anchor="middle" x="5608" y="-62.6" font-family="Times,serif" font-size="14.00">CourseGridCardComponent</text>
</g>
<!-- CourseGridCardComponent&#45;&gt;AppModule -->
<g id="edge19" class="edge">
<title>CourseGridCardComponent&#45;&gt;AppModule</title>
<path fill="none" stroke="black" d="M5608,-84.84C5608,-101.53 5608,-123.8 5608,-123.8 5608,-123.8 4463.86,-123.8 4463.86,-123.8"/>
<polygon fill="black" stroke="black" points="4463.87,-120.3 4453.86,-123.8 4463.86,-127.3 4463.87,-120.3"/>
</g>
<!-- LogoutComponent -->
<g id="node20" class="node">
<title>LogoutComponent</title>
<polygon fill="#ffffb3" stroke="black" points="5502.78,-84.8 5381.22,-84.8 5381.22,-48.8 5502.78,-48.8 5502.78,-84.8"/>
<text text-anchor="middle" x="5442" y="-62.6" font-family="Times,serif" font-size="14.00">LogoutComponent</text>
</g>
<!-- LogoutComponent&#45;&gt;AppModule -->
<g id="edge20" class="edge">
<title>LogoutComponent&#45;&gt;AppModule</title>
<path fill="none" stroke="black" d="M5442,-84.83C5442,-101.2 5442,-122.8 5442,-122.8 5442,-122.8 4463.97,-122.8 4463.97,-122.8"/>
<polygon fill="black" stroke="black" points="4463.97,-119.3 4453.97,-122.8 4463.97,-126.3 4463.97,-119.3"/>
</g>
<!-- CreateReviewComponent -->
<g id="node21" class="node">
<title>CreateReviewComponent</title>
<polygon fill="#ffffb3" stroke="black" points="5363.13,-84.8 5202.87,-84.8 5202.87,-48.8 5363.13,-48.8 5363.13,-84.8"/>
<text text-anchor="middle" x="5283" y="-62.6" font-family="Times,serif" font-size="14.00">CreateReviewComponent</text>
</g>
<!-- CreateReviewComponent&#45;&gt;AppModule -->
<g id="edge21" class="edge">
<title>CreateReviewComponent&#45;&gt;AppModule</title>
<path fill="none" stroke="black" d="M5283,-85.08C5283,-100.75 5283,-120.8 5283,-120.8 5283,-120.8 4463.72,-120.8 4463.72,-120.8"/>
<polygon fill="black" stroke="black" points="4463.72,-117.3 4453.72,-120.8 4463.72,-124.3 4463.72,-117.3"/>
</g>
<!-- DialogReviewSubmission -->
<g id="node22" class="node">
<title>DialogReviewSubmission</title>
<polygon fill="#ffffb3" stroke="black" points="5185.21,-84.8 5022.79,-84.8 5022.79,-48.8 5185.21,-48.8 5185.21,-84.8"/>
<text text-anchor="middle" x="5104" y="-62.6" font-family="Times,serif" font-size="14.00">DialogReviewSubmission</text>
</g>
<!-- DialogReviewSubmission&#45;&gt;AppModule -->
<g id="edge22" class="edge">
<title>DialogReviewSubmission&#45;&gt;AppModule</title>
<path fill="none" stroke="black" d="M5104,-85.04C5104,-100.37 5104,-119.8 5104,-119.8 5104,-119.8 4463.73,-119.8 4463.73,-119.8"/>
<polygon fill="black" stroke="black" points="4463.73,-116.3 4453.73,-119.8 4463.73,-123.3 4463.73,-116.3"/>
</g>
<!-- DialogReviewTooShort -->
<g id="node23" class="node">
<title>DialogReviewTooShort</title>
<polygon fill="#ffffb3" stroke="black" points="5004.75,-84.8 4855.25,-84.8 4855.25,-48.8 5004.75,-48.8 5004.75,-84.8"/>
<text text-anchor="middle" x="4930" y="-62.6" font-family="Times,serif" font-size="14.00">DialogReviewTooShort</text>
</g>
<!-- DialogReviewTooShort&#45;&gt;AppModule -->
<g id="edge23" class="edge">
<title>DialogReviewTooShort&#45;&gt;AppModule</title>
<path fill="none" stroke="black" d="M4930,-84.99C4930,-99.98 4930,-118.8 4930,-118.8 4930,-118.8 4463.95,-118.8 4463.95,-118.8"/>
<polygon fill="black" stroke="black" points="4463.95,-115.3 4453.95,-118.8 4463.95,-122.3 4463.95,-115.3"/>
</g>
<!-- DialogNotLoggedIn -->
<g id="node24" class="node">
<title>DialogNotLoggedIn</title>
<polygon fill="#ffffb3" stroke="black" points="4836.53,-84.8 4707.47,-84.8 4707.47,-48.8 4836.53,-48.8 4836.53,-84.8"/>
<text text-anchor="middle" x="4772" y="-62.6" font-family="Times,serif" font-size="14.00">DialogNotLoggedIn</text>
</g>
<!-- DialogNotLoggedIn&#45;&gt;AppModule -->
<g id="edge24" class="edge">
<title>DialogNotLoggedIn&#45;&gt;AppModule</title>
<path fill="none" stroke="black" d="M4772,-84.85C4772,-99.17 4772,-116.8 4772,-116.8 4772,-116.8 4464,-116.8 4464,-116.8"/>
<polygon fill="black" stroke="black" points="4464,-113.3 4454,-116.8 4464,-120.3 4464,-113.3"/>
</g>
<!-- DialogNotVerified -->
<g id="node25" class="node">
<title>DialogNotVerified</title>
<polygon fill="#ffffb3" stroke="black" points="4688.74,-84.8 4567.26,-84.8 4567.26,-48.8 4688.74,-48.8 4688.74,-84.8"/>
<text text-anchor="middle" x="4628" y="-62.6" font-family="Times,serif" font-size="14.00">DialogNotVerified</text>
</g>
<!-- DialogNotVerified&#45;&gt;AppModule -->
<g id="edge25" class="edge">
<title>DialogNotVerified&#45;&gt;AppModule</title>
<path fill="none" stroke="black" d="M4628,-85.05C4628,-98.98 4628,-115.8 4628,-115.8 4628,-115.8 4463.9,-115.8 4463.9,-115.8"/>
<polygon fill="black" stroke="black" points="4463.9,-112.3 4453.9,-115.8 4463.9,-119.3 4463.9,-112.3"/>
</g>
<!-- DialogSendFeedback -->
<g id="node26" class="node">
<title>DialogSendFeedback</title>
<polygon fill="#ffffb3" stroke="black" points="4548.74,-84.8 4413.26,-84.8 4413.26,-48.8 4548.74,-48.8 4548.74,-84.8"/>
<text text-anchor="middle" x="4481" y="-62.6" font-family="Times,serif" font-size="14.00">DialogSendFeedback</text>
</g>
<!-- DialogSendFeedback&#45;&gt;AppModule -->
<g id="edge26" class="edge">
<title>DialogSendFeedback&#45;&gt;AppModule</title>
<path fill="none" stroke="black" d="M4433.48,-84.91C4433.48,-84.91 4433.48,-103.79 4433.48,-103.79"/>
<polygon fill="black" stroke="black" points="4429.98,-103.79 4433.48,-113.79 4436.98,-103.79 4429.98,-103.79"/>
</g>
<!-- EditComponent -->
<g id="node27" class="node">
<title>EditComponent</title>
<polygon fill="#ffffb3" stroke="black" points="4395.17,-84.8 4290.83,-84.8 4290.83,-48.8 4395.17,-48.8 4395.17,-84.8"/>
<text text-anchor="middle" x="4343" y="-62.6" font-family="Times,serif" font-size="14.00">EditComponent</text>
</g>
<!-- EditComponent&#45;&gt;AppModule -->
<g id="edge27" class="edge">
<title>EditComponent&#45;&gt;AppModule</title>
<path fill="none" stroke="black" d="M4382.75,-84.91C4382.75,-84.91 4382.75,-103.79 4382.75,-103.79"/>
<polygon fill="black" stroke="black" points="4379.25,-103.79 4382.75,-113.79 4386.25,-103.79 4379.25,-103.79"/>
</g>
<!-- ViewUserReviewsComponent -->
<g id="node28" class="node">
<title>ViewUserReviewsComponent</title>
<polygon fill="#ffffb3" stroke="black" points="4273.29,-84.8 4086.71,-84.8 4086.71,-48.8 4273.29,-48.8 4273.29,-84.8"/>
<text text-anchor="middle" x="4180" y="-62.6" font-family="Times,serif" font-size="14.00">ViewUserReviewsComponent</text>
</g>
<!-- ViewUserReviewsComponent&#45;&gt;AppModule -->
<g id="edge28" class="edge">
<title>ViewUserReviewsComponent&#45;&gt;AppModule</title>
<path fill="none" stroke="black" d="M4180,-85.05C4180,-98.98 4180,-115.8 4180,-115.8 4180,-115.8 4360.26,-115.8 4360.26,-115.8"/>
<polygon fill="black" stroke="black" points="4360.26,-119.3 4370.26,-115.8 4360.26,-112.3 4360.26,-119.3"/>
</g>
<!-- EditCourseMetadataComponent -->
<g id="node29" class="node">
<title>EditCourseMetadataComponent</title>
<polygon fill="#ffffb3" stroke="black" points="4069.41,-84.8 3872.59,-84.8 3872.59,-48.8 4069.41,-48.8 4069.41,-84.8"/>
<text text-anchor="middle" x="3971" y="-62.6" font-family="Times,serif" font-size="14.00">EditCourseMetadataComponent</text>
</g>
<!-- EditCourseMetadataComponent&#45;&gt;AppModule -->
<g id="edge29" class="edge">
<title>EditCourseMetadataComponent&#45;&gt;AppModule</title>
<path fill="none" stroke="black" d="M3971,-84.85C3971,-99.17 3971,-116.8 3971,-116.8 3971,-116.8 4360.11,-116.8 4360.11,-116.8"/>
<polygon fill="black" stroke="black" points="4360.11,-120.3 4370.11,-116.8 4360.11,-113.3 4360.11,-120.3"/>
</g>
<!-- SidenavComponent -->
<g id="node30" class="node">
<title>SidenavComponent</title>
<polygon fill="#ffffb3" stroke="black" points="3855.44,-84.8 3728.56,-84.8 3728.56,-48.8 3855.44,-48.8 3855.44,-84.8"/>
<text text-anchor="middle" x="3792" y="-62.6" font-family="Times,serif" font-size="14.00">SidenavComponent</text>
</g>
<!-- SidenavComponent&#45;&gt;AppModule -->
<g id="edge30" class="edge">
<title>SidenavComponent&#45;&gt;AppModule</title>
<path fill="none" stroke="black" d="M3792,-84.99C3792,-99.98 3792,-118.8 3792,-118.8 3792,-118.8 4359.87,-118.8 4359.87,-118.8"/>
<polygon fill="black" stroke="black" points="4359.87,-122.3 4369.87,-118.8 4359.87,-115.3 4359.87,-122.3"/>
</g>
<!-- FooterComponent -->
<g id="node31" class="node">
<title>FooterComponent</title>
<polygon fill="#ffffb3" stroke="black" points="3710.88,-84.8 3593.12,-84.8 3593.12,-48.8 3710.88,-48.8 3710.88,-84.8"/>
<text text-anchor="middle" x="3652" y="-62.6" font-family="Times,serif" font-size="14.00">FooterComponent</text>
</g>
<!-- FooterComponent&#45;&gt;AppModule -->
<g id="edge31" class="edge">
<title>FooterComponent&#45;&gt;AppModule</title>
<path fill="none" stroke="black" d="M3652,-85.04C3652,-100.37 3652,-119.8 3652,-119.8 3652,-119.8 4360.33,-119.8 4360.33,-119.8"/>
<polygon fill="black" stroke="black" points="4360.33,-123.3 4370.33,-119.8 4360.33,-116.3 4360.33,-123.3"/>
</g>
<!-- SadPandaComponent -->
<g id="node32" class="node">
<title>SadPandaComponent</title>
<polygon fill="#ffffb3" stroke="black" points="3575.04,-84.8 3438.96,-84.8 3438.96,-48.8 3575.04,-48.8 3575.04,-84.8"/>
<text text-anchor="middle" x="3507" y="-62.6" font-family="Times,serif" font-size="14.00">SadPandaComponent</text>
</g>
<!-- SadPandaComponent&#45;&gt;AppModule -->
<g id="edge32" class="edge">
<title>SadPandaComponent&#45;&gt;AppModule</title>
<path fill="none" stroke="black" d="M3507,-85.08C3507,-100.75 3507,-120.8 3507,-120.8 3507,-120.8 4360.17,-120.8 4360.17,-120.8"/>
<polygon fill="black" stroke="black" points="4360.17,-124.3 4370.17,-120.8 4360.16,-117.3 4360.17,-124.3"/>
</g>
<!-- ThankyouComponent -->
<g id="node33" class="node">
<title>ThankyouComponent</title>
<polygon fill="#ffffb3" stroke="black" points="3421.1,-84.8 3282.9,-84.8 3282.9,-48.8 3421.1,-48.8 3421.1,-84.8"/>
<text text-anchor="middle" x="3352" y="-62.6" font-family="Times,serif" font-size="14.00">ThankyouComponent</text>
</g>
<!-- ThankyouComponent&#45;&gt;AppModule -->
<g id="edge33" class="edge">
<title>ThankyouComponent&#45;&gt;AppModule</title>
<path fill="none" stroke="black" d="M3352,-84.83C3352,-101.2 3352,-122.8 3352,-122.8 3352,-122.8 4360.12,-122.8 4360.12,-122.8"/>
<polygon fill="black" stroke="black" points="4360.12,-126.3 4370.12,-122.8 4360.12,-119.3 4360.12,-126.3"/>
</g>
<!-- NothingHereComponent -->
<g id="node34" class="node">
<title>NothingHereComponent</title>
<polygon fill="#ffffb3" stroke="black" points="3265.42,-84.8 3110.58,-84.8 3110.58,-48.8 3265.42,-48.8 3265.42,-84.8"/>
<text text-anchor="middle" x="3188" y="-62.6" font-family="Times,serif" font-size="14.00">NothingHereComponent</text>
</g>
<!-- NothingHereComponent&#45;&gt;AppModule -->
<g id="edge34" class="edge">
<title>NothingHereComponent&#45;&gt;AppModule</title>
<path fill="none" stroke="black" d="M3188,-84.84C3188,-101.53 3188,-123.8 3188,-123.8 3188,-123.8 4360.22,-123.8 4360.22,-123.8"/>
<polygon fill="black" stroke="black" points="4360.22,-127.3 4370.22,-123.8 4360.22,-120.3 4360.22,-127.3"/>
</g>
<!-- PandaPartyComponent -->
<g id="node35" class="node">
<title>PandaPartyComponent</title>
<polygon fill="#ffffb3" stroke="black" points="3092.59,-84.8 2947.41,-84.8 2947.41,-48.8 3092.59,-48.8 3092.59,-84.8"/>
<text text-anchor="middle" x="3020" y="-62.6" font-family="Times,serif" font-size="14.00">PandaPartyComponent</text>
</g>
<!-- PandaPartyComponent&#45;&gt;AppModule -->
<g id="edge35" class="edge">
<title>PandaPartyComponent&#45;&gt;AppModule</title>
<path fill="none" stroke="black" d="M3020,-84.82C3020,-102.17 3020,-125.8 3020,-125.8 3020,-125.8 4360.34,-125.8 4360.34,-125.8"/>
<polygon fill="black" stroke="black" points="4360.34,-129.3 4370.34,-125.8 4360.34,-122.3 4360.34,-129.3"/>
</g>
<!-- StarRatingComponent -->
<g id="node36" class="node">
<title>StarRatingComponent</title>
<polygon fill="#ffffb3" stroke="black" points="2929.71,-84.8 2788.29,-84.8 2788.29,-48.8 2929.71,-48.8 2929.71,-84.8"/>
<text text-anchor="middle" x="2859" y="-62.6" font-family="Times,serif" font-size="14.00">StarRatingComponent</text>
</g>
<!-- StarRatingComponent&#45;&gt;AppModule -->
<g id="edge36" class="edge">
<title>StarRatingComponent&#45;&gt;AppModule</title>
<path fill="none" stroke="black" d="M2859,-84.8C2859,-102.48 2859,-126.8 2859,-126.8 2859,-126.8 4360.06,-126.8 4360.06,-126.8"/>
<polygon fill="black" stroke="black" points="4360.06,-130.3 4370.06,-126.8 4360.06,-123.3 4360.06,-130.3"/>
</g>
<!-- ReviewHelpfulnessComponent -->
<g id="node37" class="node">
<title>ReviewHelpfulnessComponent</title>
<polygon fill="#ffffb3" stroke="black" points="2770.46,-84.8 2579.54,-84.8 2579.54,-48.8 2770.46,-48.8 2770.46,-84.8"/>
<text text-anchor="middle" x="2675" y="-62.6" font-family="Times,serif" font-size="14.00">ReviewHelpfulnessComponent</text>
</g>
<!-- ReviewHelpfulnessComponent&#45;&gt;AppModule -->
<g id="edge37" class="edge">
<title>ReviewHelpfulnessComponent&#45;&gt;AppModule</title>
<path fill="none" stroke="black" d="M2675,-85.1C2675,-103.07 2675,-127.8 2675,-127.8 2675,-127.8 4359.92,-127.8 4359.92,-127.8"/>
<polygon fill="black" stroke="black" points="4359.92,-131.3 4369.92,-127.8 4359.92,-124.3 4359.92,-131.3"/>
</g>
<!-- CreateCourseComponent -->
<g id="node38" class="node">
<title>CreateCourseComponent</title>
<polygon fill="#ffffb3" stroke="black" points="2561.52,-84.8 2404.48,-84.8 2404.48,-48.8 2561.52,-48.8 2561.52,-84.8"/>
<text text-anchor="middle" x="2483" y="-62.6" font-family="Times,serif" font-size="14.00">CreateCourseComponent</text>
</g>
<!-- CreateCourseComponent&#45;&gt;AppModule -->
<g id="edge38" class="edge">
<title>CreateCourseComponent&#45;&gt;AppModule</title>
<path fill="none" stroke="black" d="M2483,-85.02C2483,-103.63 2483,-129.8 2483,-129.8 2483,-129.8 4359.92,-129.8 4359.92,-129.8"/>
<polygon fill="black" stroke="black" points="4359.92,-133.3 4369.92,-129.8 4359.92,-126.3 4359.92,-133.3"/>
</g>
<!-- AppComponent  -->
<g id="node52" class="node">
<title>AppComponent </title>
<polygon fill="#80b1d3" stroke="black" points="4466.44,-214.8 4357.56,-214.8 4357.56,-178.8 4466.44,-178.8 4466.44,-214.8"/>
<text text-anchor="middle" x="4412" y="-192.6" font-family="Times,serif" font-size="14.00">AppComponent </text>
</g>
<!-- AppModule&#45;&gt;AppComponent  -->
<g id="edge51" class="edge">
<title>AppModule&#45;&gt;AppComponent </title>
<path fill="none" stroke="black" stroke-dasharray="1,5" d="M4412,-149.91C4412,-149.91 4412,-168.79 4412,-168.79"/>
<polygon fill="black" stroke="black" points="4408.5,-168.79 4412,-178.79 4415.5,-168.79 4408.5,-168.79"/>
</g>
<!-- BrowserModule -->
<g id="node40" class="node">
<title>BrowserModule</title>
<polygon fill="#8dd3c7" stroke="black" points="1950.47,-84.8 1947.47,-88.8 1926.47,-88.8 1923.47,-84.8 1843.53,-84.8 1843.53,-48.8 1950.47,-48.8 1950.47,-84.8"/>
<text text-anchor="middle" x="1897" y="-62.6" font-family="Times,serif" font-size="14.00">BrowserModule</text>
</g>
<!-- BrowserModule&#45;&gt;AppModule -->
<g id="edge39" class="edge">
<title>BrowserModule&#45;&gt;AppModule</title>
<path fill="none" stroke="black" d="M1897,-85.11C1897,-104.95 1897,-133.8 1897,-133.8 1897,-133.8 4360.19,-133.8 4360.19,-133.8"/>
<polygon fill="black" stroke="black" points="4360.19,-137.3 4370.19,-133.8 4360.19,-130.3 4360.19,-137.3"/>
</g>
<!-- AppRoutingModule -->
<g id="node41" class="node">
<title>AppRoutingModule</title>
<polygon fill="#8dd3c7" stroke="black" points="1825.27,-84.8 1822.27,-88.8 1801.27,-88.8 1798.27,-84.8 1696.73,-84.8 1696.73,-48.8 1825.27,-48.8 1825.27,-84.8"/>
<text text-anchor="middle" x="1761" y="-62.6" font-family="Times,serif" font-size="14.00">AppRoutingModule</text>
</g>
<!-- AppRoutingModule&#45;&gt;AppModule -->
<g id="edge40" class="edge">
<title>AppRoutingModule&#45;&gt;AppModule</title>
<path fill="none" stroke="black" d="M1761,-85.02C1761,-105.17 1761,-134.8 1761,-134.8 1761,-134.8 4360.09,-134.8 4360.09,-134.8"/>
<polygon fill="black" stroke="black" points="4360.09,-138.3 4370.09,-134.8 4360.09,-131.3 4360.09,-138.3"/>
</g>
<!-- BrowserAnimationsModule -->
<g id="node42" class="node">
<title>BrowserAnimationsModule</title>
<polygon fill="#8dd3c7" stroke="black" points="1678.3,-84.8 1675.3,-88.8 1654.3,-88.8 1651.3,-84.8 1505.7,-84.8 1505.7,-48.8 1678.3,-48.8 1678.3,-84.8"/>
<text text-anchor="middle" x="1592" y="-62.6" font-family="Times,serif" font-size="14.00">BrowserAnimationsModule</text>
</g>
<!-- BrowserAnimationsModule&#45;&gt;AppModule -->
<g id="edge41" class="edge">
<title>BrowserAnimationsModule&#45;&gt;AppModule</title>
<path fill="none" stroke="black" d="M1592,-84.83C1592,-105.57 1592,-136.8 1592,-136.8 1592,-136.8 4360.22,-136.8 4360.22,-136.8"/>
<polygon fill="black" stroke="black" points="4360.22,-140.3 4370.22,-136.8 4360.22,-133.3 4360.22,-140.3"/>
</g>
<!-- MaterialModule -->
<g id="node43" class="node">
<title>MaterialModule</title>
<polygon fill="#8dd3c7" stroke="black" points="1487.47,-84.8 1484.47,-88.8 1463.47,-88.8 1460.47,-84.8 1380.53,-84.8 1380.53,-48.8 1487.47,-48.8 1487.47,-84.8"/>
<text text-anchor="middle" x="1434" y="-62.6" font-family="Times,serif" font-size="14.00">MaterialModule</text>
</g>
<!-- MaterialModule&#45;&gt;AppModule -->
<g id="edge42" class="edge">
<title>MaterialModule&#45;&gt;AppModule</title>
<path fill="none" stroke="black" d="M1434,-85.08C1434,-106.12 1434,-137.8 1434,-137.8 1434,-137.8 4360.19,-137.8 4360.19,-137.8"/>
<polygon fill="black" stroke="black" points="4360.19,-141.3 4370.19,-137.8 4360.19,-134.3 4360.19,-141.3"/>
</g>
<!-- AngularFireModule.initializeApp(args) -->
<g id="node44" class="node">
<title>AngularFireModule.initializeApp(args)</title>
<polygon fill="#8dd3c7" stroke="black" points="1362.71,-84.8 1359.71,-88.8 1338.71,-88.8 1335.71,-84.8 1125.29,-84.8 1125.29,-48.8 1362.71,-48.8 1362.71,-84.8"/>
<text text-anchor="middle" x="1244" y="-62.6" font-family="Times,serif" font-size="14.00">AngularFireModule.initializeApp(args)</text>
</g>
<!-- AngularFireModule.initializeApp(args)&#45;&gt;AppModule -->
<g id="edge43" class="edge">
<title>AngularFireModule.initializeApp(args)&#45;&gt;AppModule</title>
<path fill="none" stroke="black" d="M1244,-84.97C1244,-106.3 1244,-138.8 1244,-138.8 1244,-138.8 4360.2,-138.8 4360.2,-138.8"/>
<polygon fill="black" stroke="black" points="4360.2,-142.3 4370.2,-138.8 4360.2,-135.3 4360.2,-142.3"/>
</g>
<!-- AngularFireAuthModule -->
<g id="node45" class="node">
<title>AngularFireAuthModule</title>
<polygon fill="#8dd3c7" stroke="black" points="1106.97,-84.8 1103.97,-88.8 1082.97,-88.8 1079.97,-84.8 951.03,-84.8 951.03,-48.8 1106.97,-48.8 1106.97,-84.8"/>
<text text-anchor="middle" x="1029" y="-62.6" font-family="Times,serif" font-size="14.00">AngularFireAuthModule</text>
</g>
<!-- AngularFireAuthModule&#45;&gt;AppModule -->
<g id="edge44" class="edge">
<title>AngularFireAuthModule&#45;&gt;AppModule</title>
<path fill="none" stroke="black" d="M1029,-85.09C1029,-107.01 1029,-140.8 1029,-140.8 1029,-140.8 4360.14,-140.8 4360.14,-140.8"/>
<polygon fill="black" stroke="black" points="4360.14,-144.3 4370.14,-140.8 4360.14,-137.3 4360.14,-144.3"/>
</g>
<!-- AngularFirestoreModule -->
<g id="node46" class="node">
<title>AngularFirestoreModule</title>
<polygon fill="#8dd3c7" stroke="black" points="932.68,-84.8 929.68,-88.8 908.68,-88.8 905.68,-84.8 777.32,-84.8 777.32,-48.8 932.68,-48.8 932.68,-84.8"/>
<text text-anchor="middle" x="855" y="-62.6" font-family="Times,serif" font-size="14.00">AngularFirestoreModule</text>
</g>
<!-- AngularFirestoreModule&#45;&gt;AppModule -->
<g id="edge45" class="edge">
<title>AngularFirestoreModule&#45;&gt;AppModule</title>
<path fill="none" stroke="black" d="M855,-84.96C855,-107.15 855,-141.8 855,-141.8 855,-141.8 4360.2,-141.8 4360.2,-141.8"/>
<polygon fill="black" stroke="black" points="4360.2,-145.3 4370.2,-141.8 4360.2,-138.3 4360.2,-145.3"/>
</g>
<!-- AngularFireAnalyticsModule -->
<g id="node47" class="node">
<title>AngularFireAnalyticsModule</title>
<polygon fill="#8dd3c7" stroke="black" points="759.62,-84.8 756.62,-88.8 735.62,-88.8 732.62,-84.8 578.38,-84.8 578.38,-48.8 759.62,-48.8 759.62,-84.8"/>
<text text-anchor="middle" x="669" y="-62.6" font-family="Times,serif" font-size="14.00">AngularFireAnalyticsModule</text>
</g>
<!-- AngularFireAnalyticsModule&#45;&gt;AppModule -->
<g id="edge46" class="edge">
<title>AngularFireAnalyticsModule&#45;&gt;AppModule</title>
<path fill="none" stroke="black" d="M669,-85.05C669,-107.82 669,-143.8 669,-143.8 669,-143.8 4360.29,-143.8 4360.29,-143.8"/>
<polygon fill="black" stroke="black" points="4360.29,-147.3 4370.29,-143.8 4360.28,-140.3 4360.29,-147.3"/>
</g>
<!-- HttpClientModule -->
<g id="node48" class="node">
<title>HttpClientModule</title>
<polygon fill="#8dd3c7" stroke="black" points="560.16,-84.8 557.16,-88.8 536.16,-88.8 533.16,-84.8 441.84,-84.8 441.84,-48.8 560.16,-48.8 560.16,-84.8"/>
<text text-anchor="middle" x="501" y="-62.6" font-family="Times,serif" font-size="14.00">HttpClientModule</text>
</g>
<!-- HttpClientModule&#45;&gt;AppModule -->
<g id="edge47" class="edge">
<title>HttpClientModule&#45;&gt;AppModule</title>
<path fill="none" stroke="black" d="M501,-84.89C501,-107.93 501,-144.8 501,-144.8 501,-144.8 4360.07,-144.8 4360.07,-144.8"/>
<polygon fill="black" stroke="black" points="4360.07,-148.3 4370.07,-144.8 4360.07,-141.3 4360.07,-148.3"/>
</g>
<!-- FormsModule -->
<g id="node49" class="node">
<title>FormsModule</title>
<polygon fill="#8dd3c7" stroke="black" points="423.83,-84.8 420.83,-88.8 399.83,-88.8 396.83,-84.8 328.17,-84.8 328.17,-48.8 423.83,-48.8 423.83,-84.8"/>
<text text-anchor="middle" x="376" y="-62.6" font-family="Times,serif" font-size="14.00">FormsModule</text>
</g>
<!-- FormsModule&#45;&gt;AppModule -->
<g id="edge48" class="edge">
<title>FormsModule&#45;&gt;AppModule</title>
<path fill="none" stroke="black" d="M376,-85.12C376,-108.46 376,-145.8 376,-145.8 376,-145.8 4360.07,-145.8 4360.07,-145.8"/>
<polygon fill="black" stroke="black" points="4360.07,-149.3 4370.07,-145.8 4360.07,-142.3 4360.07,-149.3"/>
</g>
<!-- ReactiveFormsModule -->
<g id="node50" class="node">
<title>ReactiveFormsModule</title>
<polygon fill="#8dd3c7" stroke="black" points="310.3,-84.8 307.3,-88.8 286.3,-88.8 283.3,-84.8 165.7,-84.8 165.7,-48.8 310.3,-48.8 310.3,-84.8"/>
<text text-anchor="middle" x="238" y="-62.6" font-family="Times,serif" font-size="14.00">ReactiveFormsModule</text>
</g>
<!-- ReactiveFormsModule&#45;&gt;AppModule -->
<g id="edge49" class="edge">
<title>ReactiveFormsModule&#45;&gt;AppModule</title>
<path fill="none" stroke="black" d="M238,-85.18C238,-109.08 238,-147.8 238,-147.8 238,-147.8 4360.01,-147.8 4360.01,-147.8"/>
<polygon fill="black" stroke="black" points="4360.01,-151.3 4370.01,-147.8 4360.01,-144.3 4360.01,-151.3"/>
</g>
<!-- FlexLayoutModule -->
<g id="node51" class="node">
<title>FlexLayoutModule</title>
<polygon fill="#8dd3c7" stroke="black" points="148.1,-84.8 145.1,-88.8 124.1,-88.8 121.1,-84.8 23.9,-84.8 23.9,-48.8 148.1,-48.8 148.1,-84.8"/>
<text text-anchor="middle" x="86" y="-62.6" font-family="Times,serif" font-size="14.00">FlexLayoutModule</text>
</g>
<!-- FlexLayoutModule&#45;&gt;AppModule -->
<g id="edge50" class="edge">
<title>FlexLayoutModule&#45;&gt;AppModule</title>
<path fill="none" stroke="black" d="M86,-85C86,-109.16 86,-148.8 86,-148.8 86,-148.8 4360.23,-148.8 4360.23,-148.8"/>
<polygon fill="black" stroke="black" points="4360.23,-152.3 4370.23,-148.8 4360.23,-145.3 4360.23,-152.3"/>
</g>
<!-- ScreenTrackingService -->
<g id="node53" class="node">
<title>ScreenTrackingService</title>
<ellipse fill="#fdb462" stroke="black" cx="2279" cy="-66.8" rx="101.24" ry="18"/>
<text text-anchor="middle" x="2279" y="-62.6" font-family="Times,serif" font-size="14.00">ScreenTrackingService</text>
</g>
<!-- ScreenTrackingService&#45;&gt;AppModule -->
<g id="edge52" class="edge">
<title>ScreenTrackingService&#45;&gt;AppModule</title>
<path fill="none" stroke="black" d="M2279,-84.97C2279,-103.89 2279,-130.8 2279,-130.8 2279,-130.8 4359.87,-130.8 4359.87,-130.8"/>
<polygon fill="black" stroke="black" points="4359.87,-134.3 4369.87,-130.8 4359.87,-127.3 4359.87,-134.3"/>
</g>
<!-- UserTrackingService -->
<g id="node54" class="node">
<title>UserTrackingService</title>
<ellipse fill="#fdb462" stroke="black" cx="2067" cy="-66.8" rx="93.15" ry="18"/>
<text text-anchor="middle" x="2067" y="-62.6" font-family="Times,serif" font-size="14.00">UserTrackingService</text>
</g>
<!-- UserTrackingService&#45;&gt;AppModule -->
<g id="edge53" class="edge">
<title>UserTrackingService&#45;&gt;AppModule</title>
<path fill="none" stroke="black" d="M2067,-84.91C2067,-104.14 2067,-131.8 2067,-131.8 2067,-131.8 4360.3,-131.8 4360.3,-131.8"/>
<polygon fill="black" stroke="black" points="4360.3,-135.3 4370.3,-131.8 4360.3,-128.3 4360.3,-135.3"/>
</g>
</g>
</svg>
