<?xml version="1.0" encoding="UTF-8" standalone="no"?>
<!DOCTYPE svg PUBLIC "-//W3C//DTD SVG 1.1//EN"
 "http://www.w3.org/Graphics/SVG/1.1/DTD/svg11.dtd">
<!-- Generated by graphviz version 2.47.3 (20210619.1520)
 -->
<!-- Title: dependencies Pages: 1 -->
<svg width="234pt" height="247pt"
 viewBox="0.00 0.00 234.00 246.80" xmlns="http://www.w3.org/2000/svg" xmlns:xlink="http://www.w3.org/1999/xlink">
<g id="graph0" class="graph" transform="scale(1 1) rotate(0) translate(4 242.8)">
<title>dependencies</title>
<polygon fill="white" stroke="transparent" points="-4,4 -4,-242.8 230,-242.8 230,4 -4,4"/>
<text text-anchor="middle" x="113" y="-8.2" font-family="sans-serif" font-size="14.00">dependencies</text>
<g id="clust1" class="cluster">
<title>cluster_AppRoutingModule</title>
<polygon fill="none" stroke="black" stroke-dasharray="1,5" points="8,-32.8 8,-230.8 218,-230.8 218,-32.8 8,-32.8"/>
</g>
<g id="clust4" class="cluster">
<title>cluster_AppRoutingModule_exports</title>
<polygon fill="none" stroke="black" points="54,-170.8 54,-222.8 172,-222.8 172,-170.8 54,-170.8"/>
</g>
<g id="clust3" class="cluster">
<title>cluster_AppRoutingModule_imports</title>
<polygon fill="none" stroke="black" points="16,-40.8 16,-92.8 210,-92.8 210,-40.8 16,-40.8"/>
</g>
<!-- RouterModule.forRoot(args) -->
<g id="node1" class="node">
<title>RouterModule.forRoot(args)</title>
<polygon fill="#8dd3c7" stroke="black" points="201.84,-84.8 198.84,-88.8 177.84,-88.8 174.84,-84.8 24.16,-84.8 24.16,-48.8 201.84,-48.8 201.84,-84.8"/>
<text text-anchor="middle" x="113" y="-62.6" font-family="Times,serif" font-size="14.00">RouterModule.forRoot(args)</text>
</g>
<!-- AppRoutingModule -->
<g id="node2" class="node">
<title>AppRoutingModule</title>
<polygon fill="#8dd3c7" stroke="black" points="177.27,-149.8 174.27,-153.8 153.27,-153.8 150.27,-149.8 48.73,-149.8 48.73,-113.8 177.27,-113.8 177.27,-149.8"/>
<text text-anchor="middle" x="113" y="-127.6" font-family="Times,serif" font-size="14.00">AppRoutingModule</text>
</g>
<!-- RouterModule.forRoot(args)&#45;&gt;AppRoutingModule -->
<g id="edge1" class="edge">
<title>RouterModule.forRoot(args)&#45;&gt;AppRoutingModule</title>
<path fill="none" stroke="black" d="M113,-84.91C113,-84.91 113,-103.79 113,-103.79"/>
<polygon fill="black" stroke="black" points="109.5,-103.79 113,-113.79 116.5,-103.79 109.5,-103.79"/>
</g>
<!-- RouterModule  -->
<g id="node3" class="node">
<title>RouterModule </title>
<polygon fill="#fb8072" stroke="black" points="163.65,-214.8 62.35,-214.8 62.35,-178.8 163.65,-178.8 163.65,-214.8"/>
<text text-anchor="middle" x="113" y="-192.6" font-family="Times,serif" font-size="14.00">RouterModule </text>
</g>
<!-- AppRoutingModule&#45;&gt;RouterModule  -->
<g id="edge2" class="edge">
<title>AppRoutingModule&#45;&gt;RouterModule </title>
<path fill="none" stroke="black" stroke-dasharray="5,2" d="M113,-149.91C113,-149.91 113,-168.79 113,-168.79"/>
<polygon fill="black" stroke="black" points="109.5,-168.79 113,-178.79 116.5,-168.79 109.5,-168.79"/>
</g>
</g>
</svg>
